<?xml version="1.0" encoding="UTF-8" standalone="no"?><svg xmlns:svg="http://www.w3.org/2000/svg" xmlns="http://www.w3.org/2000/svg" xmlns:xlink="http://www.w3.org/1999/xlink" version="1.0" width="40px" height="40px" viewBox="0 0 128 128" xml:space="preserve"><g><path d="M128.03 68.13a5.6 5.6 0 0 1-.93 2 37.6 37.6 0 0 1-12.5 10.9 38.32 38.32 0 0 1-7.74 3.17 37.68 37.68 0 0 1-16.42.96 38.32 38.32 0 0 1-8-2.23 38.77 38.77 0 0 1-13.23-8.8 5.37 5.37 0 0 1 .1.95 29.13 29.13 0 0 0 10 22.2 28.75 28.75 0 0 0 23.3 7.13 5.58 5.58 0 0 1 3.4.5 5.1 5.1 0 0 1 .8.5l.4.3.17.2.17.2a4.77 4.77 0 0 1 .97 1.5 3.6 3.6 0 0 1-.4 3.4 4.13 4.13 0 0 1-.3.4 4.3 4.3 0 0 1-.3.38 4.75 4.75 0 0 1-.8.6 5.62 5.62 0 0 1-2.06.76 37.6 37.6 0 0 1-16.6-1.2 38.3 38.3 0 0 1-7.7-3.24 37.67 37.67 0 0 1-12.3-11 38.3 38.3 0 0 1-4.1-7.24 38.77 38.77 0 0 1-3.1-15.6 5.37 5.37 0 0 1-.6.7 29.13 29.13 0 0 0-8.67 22.7A28.75 28.75 0 0 0 63 119.7a5.58 5.58 0 0 1 2 2.7 5.14 5.14 0 0 1 .2.88c.03.14.04.28.05.43v.4a4.77 4.77 0 0 1-.4 1.7 3.6 3.6 0 0 1-2.6 2.2 4.1 4.1 0 0 1-.44.1 4.2 4.2 0 0 1-.5.05 4.76 4.76 0 0 1-1-.13 5.62 5.62 0 0 1-2-.9 37.58 37.58 0 0 1-10.9-12.5 38.32 38.32 0 0 1-3.1-7.73 37.68 37.68 0 0 1-.9-16.4 38.32 38.32 0 0 1 2.2-8 38.77 38.77 0 0 1 8.8-13.26 5.37 5.37 0 0 1-.9.1 29.13 29.13 0 0 0-22.2 9.98 28.75 28.75 0 0 0-7.2 23.3 5.6 5.6 0 0 1-.5 3.4 5.16 5.16 0 0 1-.4.7l-.3.35q-.03.1-.1.17t-.17.2a4.74 4.74 0 0 1-1.45.96 3.6 3.6 0 0 1-3.4-.3 4.24 4.24 0 0 1-.4-.3 4.33 4.33 0 0 1-.35-.3 4.7 4.7 0 0 1-.65-.8 5.6 5.6 0 0 1-.8-2.08A37.6 37.6 0 0 1 16.62 88a38.34 38.34 0 0 1 3.2-7.7A37.67 37.67 0 0 1 30.76 68a38.3 38.3 0 0 1 7.2-4.1 38.77 38.77 0 0 1 15.57-3.1 5.37 5.37 0 0 1-.7-.64 29.13 29.13 0 0 0-22.72-8.6A28.75 28.75 0 0 0 8.6 62.8a5.58 5.58 0 0 1-2.7 2.02 5.14 5.14 0 0 1-.84.2q-.2.04-.42.06h-.4a4.76 4.76 0 0 1-1.7-.34 3.6 3.6 0 0 1-2.2-2.65 4.2 4.2 0 0 1-.07-.5 4.38 4.38 0 0 1-.03-.5 4.72 4.72 0 0 1 .15-1 5.6 5.6 0 0 1 .9-2 37.6 37.6 0 0 1 12.5-10.9 38.34 38.34 0 0 1 7.7-3.2 37.68 37.68 0 0 1 16.5-.9 38.3 38.3 0 0 1 8 2.2 38.77 38.77 0 0 1 13.2 8.8 5.37 5.37 0 0 1-.1-1 29.13 29.13 0 0 0-10-22.2 28.75 28.75 0 0 0-23.3-7.15 5.58 5.58 0 0 1-3.4-.5 5.13 5.13 0 0 1-.75-.43l-.34-.28q-.1-.08-.16-.15t-.15-.15a4.76 4.76 0 0 1-1-1.44 3.6 3.6 0 0 1 .3-3.4 4.2 4.2 0 0 1 .3-.3 4.37 4.37 0 0 1 .3-.3 4.72 4.72 0 0 1 .8-.6 5.6 5.6 0 0 1 2.1-.74 37.6 37.6 0 0 1 16.5 1.16 38.34 38.34 0 0 1 7.7 3.22A37.68 37.68 0 0 1 60.4 30.9a38.3 38.3 0 0 1 4.1 7.24 38.77 38.77 0 0 1 3.1 15.57 5.38 5.38 0 0 1 .6-.7 29.13 29.13 0 0 0 8.7-22.7A28.75 28.75 0 0 0 65.5 8.6a5.58 5.58 0 0 1-2-2.76 5.14 5.14 0 0 1-.2-.8l-.05-.43v-.4a4.76 4.76 0 0 1 .33-1.7 3.6 3.6 0 0 1 2.6-2.2 4.2 4.2 0 0 1 .46 0 4.38 4.38 0 0 1 .47 0 4.72 4.72 0 0 1 1 .1 5.6 5.6 0 0 1 2 1A37.6 37.6 0 0 1 81 13.8a38.34 38.34 0 0 1 3.17 7.7 37.68 37.68 0 0 1 .9 16.4 38.3 38.3 0 0 1-2.23 8 38.77 38.77 0 0 1-8.8 13.2A5.4 5.4 0 0 1 75 59a29.13 29.13 0 0 0 22.2-10 28.75 28.75 0 0 0 7.12-23.3 5.58 5.58 0 0 1 .5-3.35 5.17 5.17 0 0 1 .45-.73q.1-.2.24-.34l.2-.18.2-.16a4.75 4.75 0 0 1 1.5-.95 3.6 3.6 0 0 1 3.4.3 4.24 4.24 0 0 1 .4.2 4.35 4.35 0 0 1 .38.3 4.72 4.72 0 0 1 .6.8 5.6 5.6 0 0 1 .8 2.1 37.6 37.6 0 0 1-1.1 16.52 38.3 38.3 0 0 1-3.25 7.7 37.67 37.67 0 0 1-10.9 12.3 38.3 38.3 0 0 1-7.22 4.06 38.77 38.77 0 0 1-15.55 3.12 5.38 5.38 0 0 1 .75.6 29.13 29.13 0 0 0 22.7 8.7 28.75 28.75 0 0 0 21.5-11.4 5.58 5.58 0 0 1 2.72-2.05 5.14 5.14 0 0 1 .83-.2h.8a4.76 4.76 0 0 1 1.7.35 3.6 3.6 0 0 1 2.15 2.7 4.1 4.1 0 0 1 .08.5 4.45 4.45 0 0 1 .1.5 4.7 4.7 0 0 1-.1 1z" fill="#ffffff"/><animateTransform attributeName="transform" type="rotate" from="0 64 64" to="45 64 64" dur="270ms" repeatCount="indefinite"></animateTransform></g></svg>